<svg xmlns="http://www.w3.org/2000/svg" width="1280" height="720" viewBox="0 0 1280 720">
  <defs>
    <linearGradient id="background" x1="0" y1="0" x2="1" y2="1">
      <stop offset="0" stop-color="#03152f"/>
      <stop offset="0.58" stop-color="#073d82"/>
      <stop offset="1" stop-color="#0877f9"/>
    </linearGradient>
    <radialGradient id="glow" cx="80%" cy="18%" r="70%">
      <stop offset="0" stop-color="#51a5ff" stop-opacity=".48"/>
      <stop offset="1" stop-color="#0b57bd" stop-opacity="0"/>
    </radialGradient>
    <filter id="shadow" x="-30%" y="-30%" width="160%" height="160%">
      <feDropShadow dx="0" dy="18" stdDeviation="22" flood-color="#001027" flood-opacity=".35"/>
    </filter>
  </defs>
  <rect width="1280" height="720" fill="url(#background)"/>
  <rect width="1280" height="720" fill="url(#glow)"/>
  <circle cx="1130" cy="615" r="250" fill="none" stroke="#69b5ff" stroke-width="2" opacity=".18"/>
  <circle cx="1130" cy="615" r="180" fill="none" stroke="#69b5ff" stroke-width="2" opacity=".18"/>
  <path d="M0 626 C250 525 425 696 690 586 S1080 482 1280 545 V720 H0Z" fill="#001936" opacity=".42"/>
  <g filter="url(#shadow)">
    <rect x="78" y="85" width="350" height="350" rx="34" fill="#fff"/>
    <image href="diverse-consulting-logo.png" x="103" y="110" width="300" height="300" preserveAspectRatio="xMidYMid meet"/>
  </g>
  <text x="492" y="237" fill="#8dccff" font-family="Arial, Helvetica, sans-serif" font-size="26" font-weight="700" letter-spacing="5">GROW • BRAND • EARN</text>
  <text x="488" y="320" fill="#fff" font-family="Arial, Helvetica, sans-serif" font-size="58" font-weight="700">Welcome to</text>
  <text x="488" y="392" fill="#fff" font-family="Arial, Helvetica, sans-serif" font-size="58" font-weight="700">Diverse Consulting</text>
  <rect x="488" y="428" width="210" height="6" rx="3" fill="#2c98ff"/>
  <g transform="translate(570 535)" filter="url(#shadow)">
    <circle r="62" fill="#fff"/>
    <path d="M-15-25 L32 0 L-15 25Z" fill="#0868da"/>
  </g>
  <text x="653" y="545" fill="#dbeeff" font-family="Arial, Helvetica, sans-serif" font-size="24" font-weight="600">Watch our introduction</text>
</svg>
